HIERARCHY
ROOT hip
{
	OFFSET 0.000000 0.000000 0.000000
	CHANNELS 6 Xposition Yposition Zposition Xrotation Zrotation Yrotation 
	JOINT abdomen
	{
		OFFSET 0.000000 3.422050 0.000000
		CHANNELS 3 Xrotation Zrotation Yrotation 
		JOINT chest
		{
			OFFSET 0.000000 8.486693 -0.684411
			CHANNELS 3 Xrotation Zrotation Yrotation 
			JOINT neck
			{
				OFFSET 0.000000 10.266162 -0.273764
				CHANNELS 3 Xrotation Zrotation Yrotation 
				JOINT head
				{
					OFFSET 0.000000 3.148285 0.000000
					CHANNELS 3 Xrotation Zrotation Yrotation 
					End Site
					{
						OFFSET 0.000000 3.148289 0.000000
					}
				}
			}
			JOINT lCollar
			{
				OFFSET 3.422053 6.707223 -0.821293
				CHANNELS 3 Yrotation Zrotation Xrotation 
				JOINT lShldr
				{
					OFFSET 3.285171 0.000000 0.000000
					CHANNELS 3 Zrotation Yrotation Xrotation 
					JOINT lForeArm
					{
						OFFSET 10.129278 0.000000 0.000000
						CHANNELS 3 Yrotation Zrotation Xrotation 
						JOINT lHand
						{
							OFFSET 8.486692 0.000000 0.000000
							CHANNELS 3 Zrotation Yrotation Xrotation 
							End Site
							{
								OFFSET 4.106464 0.000000 0.000000
							}
						}
					}
				}
			}
			JOINT rCollar
			{
				OFFSET -3.558935 6.707223 -0.821293
				CHANNELS 3 Yrotation Zrotation Xrotation 
				JOINT rShldr
				{
					OFFSET -3.148289 0.000000 0.000000
					CHANNELS 3 Zrotation Yrotation Xrotation 
					JOINT rForeArm
					{
						OFFSET -10.266159 0.000000 0.000000
						CHANNELS 3 Yrotation Zrotation Xrotation 
						JOINT rHand
						{
							OFFSET -8.349810 0.000000 0.000000
							CHANNELS 3 Zrotation Yrotation Xrotation 
							End Site
							{
								OFFSET -4.106464 0.000000 0.000000
							}
						}
					}
				}
			}
		}
	}
	JOINT lThigh
	{
		OFFSET 5.338403 -1.642589 1.368821
		CHANNELS 3 Xrotation Zrotation Yrotation 
		JOINT lShin
		{
			OFFSET -2.053232 -20.121670 0.000000
			CHANNELS 3 Xrotation Zrotation Yrotation 
			JOINT lFoot
			{
				OFFSET 0.000000 -19.300380 -1.231939
				CHANNELS 3 Xrotation Yrotation Zrotation 
				End Site
				{
					OFFSET 0.000000 -2.463878 4.653993
				}
			}
		}
	}
	JOINT rThigh
	{
		OFFSET -5.338403 -1.642589 1.368821
		CHANNELS 3 Xrotation Zrotation Yrotation 
		JOINT rShin
		{
			OFFSET 2.053232 -20.121670 0.000000
			CHANNELS 3 Xrotation Zrotation Yrotation 
			JOINT rFoot
			{
				OFFSET 0.000000 -19.300380 -1.231939
				CHANNELS 3 Xrotation Yrotation Zrotation 
				End Site
				{
					OFFSET 0.000000 -2.463878 4.653993
				}
			}
		}
	}
}
MOTION
Frames: 9
Frame Time: 0.033264
-2.069581 5.468128 18.139584 33.992661 1.195531 -179.634567 24.874884 0.222827 -1.213245 28.783298 -0.210596 -0.987341 -4.666728 2.553775 -19.337303 -26.943689 14.843191 6.780341 4.642489 -21.722565 0.907256 -36.930927 -16.875051 2.422957 -14.218040 -46.007877 10.348386 -1.272999 -5.768565 -60.857956 15.823641 27.116354 -12.426209 15.047820 -16.300955 -1.260328 48.636719 -4.596296 -11.898039 14.333996 13.399646 19.181690 -105.184792 41.608868 4.886064 112.724854 -19.642469 6.367166 41.663250 -19.462255 -8.030918 -117.092827 -40.348156 16.864370 121.112587 11.268569 -0.156987 11.834976 8.418776 2.057412 
-2.069581 5.468128 18.139584 33.992661 1.195531 -179.634567 24.874884 0.222827 -1.213245 28.783298 -0.210596 -0.987341 -4.750418 2.340144 -19.593086 -27.002844 14.875685 6.815649 4.642489 -21.722565 0.907256 -36.930927 -16.875051 2.422957 -14.218040 -46.007877 10.348386 -1.272999 -5.768565 -60.857956 15.823641 27.116354 -12.426209 15.047998 -16.207323 -1.262485 48.636719 -4.596296 -11.898039 14.333996 13.399646 19.181690 -105.184792 41.608868 4.886064 112.724854 -19.642469 6.367166 41.663250 -19.462255 -8.030918 -117.092827 -40.348156 16.864370 121.112587 11.268569 -0.156987 11.834976 8.418776 2.057412 
-2.069581 5.468128 18.139584 33.992661 1.195531 -179.634567 24.874884 0.222827 -1.213245 28.783298 -0.210596 -0.987341 -4.833084 2.126279 -19.848345 -27.061972 14.908203 6.850919 4.642489 -21.722565 0.907256 -36.930927 -16.875051 2.422957 -14.218040 -46.007877 10.348386 -1.272999 -5.768565 -60.857956 15.823641 27.116354 -12.426209 15.048174 -16.113688 -1.264642 48.636719 -4.596296 -11.898039 14.333996 13.399646 19.181690 -105.184792 41.608868 4.886064 112.724854 -19.642469 6.367166 41.663250 -19.462255 -8.030918 -117.092827 -40.348156 16.864370 121.112587 11.268569 -0.156987 11.834976 8.418776 2.057412 
-2.069581 5.468128 18.139584 33.992661 1.195531 -179.634567 24.874884 0.222827 -1.213245 28.783298 -0.210596 -0.987341 -4.914732 1.912196 -20.103100 -27.121086 14.940759 6.886160 4.642489 -21.722565 0.907256 -36.930927 -16.875051 2.422957 -14.218040 -46.007877 10.348386 -1.272999 -5.768565 -60.857956 15.823641 27.116354 -12.426209 15.048348 -16.020048 -1.266797 48.636719 -4.596296 -11.898039 14.333996 13.399646 19.181690 -105.184792 41.608868 4.886064 112.724854 -19.642469 6.367166 41.663250 -19.462255 -8.030918 -117.092827 -40.348156 16.864370 121.112587 11.268569 -0.156987 11.834976 8.418776 2.057412 
-2.069581 5.468128 18.139584 33.992661 1.195531 -179.634567 24.874884 0.222827 -1.213245 28.783298 -0.210596 -0.987341 -4.995363 1.697899 -20.357344 -27.180180 14.973344 6.921366 4.642489 -21.722565 0.907256 -36.930927 -16.875051 2.422957 -14.218040 -46.007877 10.348386 -1.272999 -5.768565 -60.857956 15.823641 27.116354 -12.426209 15.048519 -15.926403 -1.268952 48.636719 -4.596296 -11.898039 14.333996 13.399646 19.181690 -105.184792 41.608868 4.886064 112.724854 -19.642469 6.367166 41.663250 -19.462255 -8.030918 -117.092827 -40.348156 16.864370 121.112587 11.268569 -0.156987 11.834976 8.418776 2.057412 
-2.069581 5.468128 18.139584 33.992661 1.195531 -179.634567 24.874884 0.222827 -1.213245 28.783298 -0.210596 -0.987341 -5.074977 1.483397 -20.611078 -27.239262 15.005963 6.956542 4.642489 -21.722565 0.907256 -36.930927 -16.875051 2.422957 -14.218040 -46.007877 10.348386 -1.272999 -5.768565 -60.857956 15.823641 27.116354 -12.426209 15.048681 -15.832752 -1.271104 48.636719 -4.596296 -11.898039 14.333996 13.399646 19.181690 -105.184792 41.608868 4.886064 112.724854 -19.642469 6.367166 41.663250 -19.462255 -8.030918 -117.092827 -40.348156 16.864370 121.112587 11.268569 -0.156987 11.834976 8.418776 2.057412 
-2.069581 5.468128 18.139584 33.992661 1.195531 -179.634567 24.874884 0.222827 -1.213245 28.783298 -0.210596 -0.987341 -5.153576 1.268701 -20.864304 -27.298319 15.038610 6.991682 4.642489 -21.722565 0.907256 -36.930927 -16.875051 2.422957 -14.218040 -46.007877 10.348386 -1.272999 -5.768565 -60.857956 15.823641 27.116354 -12.426209 15.048843 -15.739097 -1.273256 48.636719 -4.596296 -11.898039 14.333996 13.399646 19.181690 -105.184792 41.608868 4.886064 112.724854 -19.642469 6.367166 41.663250 -19.462255 -8.030918 -117.092827 -40.348156 16.864370 121.112572 11.268570 -0.156988 11.834976 8.418776 2.057412 
-2.069581 5.468128 18.139584 33.992661 1.195531 -179.634567 24.874884 0.222827 -1.213245 28.783298 -0.210596 -0.987341 -5.231161 1.053820 -21.117031 -27.357368 15.071296 7.026793 4.642488 -21.722565 0.907256 -36.930927 -16.875051 2.422957 -14.218040 -46.007877 10.348386 -1.272999 -5.768565 -60.857956 15.823641 27.116354 -12.426209 15.049002 -15.645438 -1.275407 48.636719 -4.596296 -11.898039 14.333996 13.399646 19.181690 -105.184792 41.608868 4.886064 112.724854 -19.642469 6.367166 41.663250 -19.462255 -8.030918 -117.092827 -40.348156 16.864370 121.112587 11.268569 -0.156987 11.834976 8.418776 2.057412 
-2.069581 5.468128 18.139584 33.992661 1.195531 -179.634567 24.874884 0.222827 -1.213245 28.783298 -0.210596 -0.987341 -5.307739 0.838761 -21.369265 -27.416395 15.104009 7.061868 4.642488 -21.722565 0.907256 -36.930927 -16.875051 2.422957 -14.218040 -46.007877 10.348386 -1.272999 -5.768565 -60.857956 15.823641 27.116354 -12.426209 15.049157 -15.551778 -1.277557 48.636719 -4.596296 -11.898039 14.333996 13.399646 19.181690 -105.184792 41.608868 4.886064 112.724854 -19.642469 6.367166 41.663250 -19.462255 -8.030918 -117.092827 -40.348156 16.864370 121.112587 11.268569 -0.156987 11.834976 8.418776 2.057412 
